<?xml version="1.0" encoding="iso-8859-1"?>
<!-- Generator: Adobe Illustrator 23.0.3, SVG Export Plug-In . SVG Version: 6.00 Build 0)  -->
<svg version="1.1" id="Layer_1" xmlns="http://www.w3.org/2000/svg" xmlns:xlink="http://www.w3.org/1999/xlink" x="0px" y="0px"
	 viewBox="0 0 2000 200" style="enable-background:new 0 0 2000 200;" xml:space="preserve">
<path style="fill:#727272;" d="M20.635,68.966c-6.331-9.794,9.601-37.722,23.602-37.258c9.66,0.32,10.249,13.885,33.613,42.837
	c13.328,16.516,18.66,18.944,18.634,26.652c-0.061,18.47-30.781,38.056-43.082,30.935c-8.573-4.964-7.993-22.783-7.8-26.291
	c0.853-15.555,8.966-21.349,5.59-27.513C46.209,69.228,26.109,77.434,20.635,68.966z"/>
<path style="fill:#727272;" d="M112.643,11.963c-1.414,6.967,52.839,14.801,56.498,42.099c2.094,15.621-14.264,23.556-10.335,34.697
	c6.601,18.717,63.92,27.939,78.761,4.963c10.56-16.348-3.794-43.722-16.089-57.938C185.469-5.853,114.218,4.208,112.643,11.963z"/>
<path style="fill:#727272;" d="M133.759,169.353c10.454,22.213,42.881,34.051,68.421,24.809
	c22.333-8.082,37.369-31.546,32.975-38.113c-6.055-9.051-44.647,20.528-72.55,3.921c-17.171-10.219-19.324-31.4-25.696-30.058
	C130.691,131.221,125.978,152.82,133.759,169.353z"/>
<path style="fill:#727272;" d="M300.149,128.514c13.115,23.677,65.137,26.701,77.789,9.102c9.29-12.922-7.557-30.13,3.634-48.937
	c7.887-13.253,25.719-20.611,40.164-18.517c20.015,2.901,28.65,23.239,31.658,21.413c5.499-3.337-12.657-77.818-53.469-82.879
	c-21.525-2.67-39.346,15.213-57.688,33.618C330.596,53.995,284.496,100.254,300.149,128.514z"/>
<path style="fill:#727272;" d="M1721.11,16.06c-20.381,17.81-12.375,69.301,7.495,77.96c14.59,6.358,27.861-13.737,48.604-6.76
	c14.618,4.917,25.568,20.798,26.566,35.36c1.382,20.177-16.679,32.904-14.261,35.459c4.421,4.672,73.403-28.772,69.75-69.734
	c-1.926-21.604-23.163-35.257-45.02-49.308C1800.371,30.119,1745.436-5.197,1721.11,16.06z"/>
<path style="fill:#727272;" d="M506.944,56.985c8.88-22.552,86.952-22.917,94.218-3.199c5.419,14.704-23.498,54.251-57.805,47.13
	C519.661,95.998,501.613,70.522,506.944,56.985z"/>
<path style="fill:#727272;" d="M477.991,109.582c-12.195-0.011-26.742,18.347-23.847,34.58
	c4.124,23.121,41.556,30.285,50.526,21.041C515.238,154.313,497.013,109.599,477.991,109.582z"/>
<path style="fill:#727272;" d="M1927.071,26.374c-12.195-0.011-26.742,18.347-23.847,34.58
	c4.124,23.121,41.556,30.285,50.526,21.041C1964.318,71.104,1946.093,26.391,1927.071,26.374z"/>
<path style="fill:#727272;" d="M716.342,117.531c-1.013-20.537-40.634-25.491-42.38-50.138
	c-1.528-21.564,26.912-44.445,36.87-39.819c9.305,4.322-4.929,29.22,6.838,60.132c13.117,34.458,44.201,38.717,42.747,54.155
	c-2.769,29.392-118.263,43.951-121.098,34.01C636.906,167.411,717.802,147.149,716.342,117.531z"/>
<path style="fill:#727272;" d="M627.113,116.224c-12.763,21.286-44.279,20.921-43.693,24.24c0.55,3.115,28.509,4.515,54.532-9.027
	c9.914-5.159,20.421-10.627,22.391-20.946c3.223-16.883-18.479-35.912-25.94-32.736C627.739,80.591,637.431,99.016,627.113,116.224z
	"/>
<path style="fill:#727272;" d="M802.622,42.15c-10.628-0.411-24.974,28.688-20.675,54.543c2.578,15.501,12.495,33.669,21.923,33.103
	c7.55-0.453,12.642-12.789,14.601-17.534c1.302-3.155,5.284-13.755,2.545-31.286C819.301,69.997,812.801,42.543,802.622,42.15z"/>
<path style="fill:#727272;" d="M864.447,69.074c-6.331-9.794,9.601-37.722,23.602-37.258c9.66,0.32,10.248,13.885,33.613,42.837
	c13.328,16.516,18.659,18.944,18.634,26.652c-0.061,18.47-30.781,38.056-43.081,30.935c-8.573-4.964-7.993-22.783-7.8-26.291
	c0.853-15.555,8.966-21.349,5.59-27.513C890.021,69.336,869.92,77.542,864.447,69.074z"/>
<path style="fill:#727272;" d="M956.455,12.071c-1.414,6.967,52.839,14.801,56.498,42.099c2.094,15.621-14.264,23.556-10.335,34.697
	c6.601,18.717,63.92,27.939,78.761,4.963c10.56-16.348-3.794-43.722-16.089-57.938C1029.28-5.745,958.029,4.316,956.455,12.071z"/>
<path style="fill:#727272;" d="M977.57,169.461c10.454,22.213,42.881,34.051,68.421,24.809
	c22.333-8.082,37.369-31.546,32.975-38.113c-6.055-9.051-44.647,20.528-72.55,3.921c-17.171-10.219-19.324-31.4-25.696-30.058
	C974.502,131.329,969.79,152.928,977.57,169.461z"/>
<path style="fill:#727272;" d="M1143.961,128.622c13.115,23.677,65.137,26.701,77.789,9.102c9.29-12.922-7.557-30.13,3.634-48.937
	c7.887-13.253,25.719-20.611,40.164-18.517c20.015,2.901,28.65,23.239,31.658,21.413c5.499-3.337-12.657-77.818-53.469-82.879
	c-21.525-2.67-39.346,15.213-57.688,33.618C1174.408,54.103,1128.308,100.362,1143.961,128.622z"/>
<path style="fill:#727272;" d="M1350.755,57.093c8.88-22.552,86.952-22.917,94.218-3.199c5.419,14.704-23.498,54.251-57.805,47.13
	C1363.472,96.106,1345.425,70.63,1350.755,57.093z"/>
<path style="fill:#727272;" d="M1321.802,109.691c-12.195-0.011-26.742,18.347-23.847,34.58
	c4.124,23.121,41.556,30.285,50.526,21.041C1359.049,154.421,1340.824,109.707,1321.802,109.691z"/>
<path style="fill:#727272;" d="M1560.153,117.64c-1.013-20.537-40.634-25.491-42.38-50.138
	c-1.528-21.564,26.912-44.445,36.87-39.819c9.305,4.322-4.929,29.22,6.838,60.132c13.117,34.458,44.201,38.717,42.747,54.155
	c-2.769,29.392-118.263,43.951-121.098,34.01C1480.718,167.52,1561.614,147.258,1560.153,117.64z"/>
<path style="fill:#727272;" d="M1934.929,155.125c-12.763,21.286-44.279,20.921-43.693,24.24c0.55,3.115,28.509,4.515,54.532-9.027
	c9.914-5.159,20.421-10.627,22.391-20.946c3.223-16.883-18.479-35.912-25.94-32.736
	C1935.555,119.492,1945.247,137.917,1934.929,155.125z"/>
<path style="fill:#727272;" d="M1646.433,42.258c-10.628-0.411-24.974,28.688-20.675,54.543
	c2.578,15.501,12.495,33.669,21.923,33.103c7.55-0.453,12.642-12.789,14.601-17.534c1.302-3.155,5.284-13.755,2.545-31.286
	C1663.113,70.105,1656.612,42.652,1646.433,42.258z"/>
</svg>
