<?xml version="1.0" encoding="utf-8"?>
<!-- Generator: Adobe Illustrator 23.0.3, SVG Export Plug-In . SVG Version: 6.00 Build 0)  -->
<svg version="1.1" id="Layer_1" xmlns="http://www.w3.org/2000/svg" xmlns:xlink="http://www.w3.org/1999/xlink" x="0px" y="0px"
	 viewBox="0 0 2000 2000" style="enable-background:new 0 0 2000 2000;" xml:space="preserve">
<style type="text/css">
	.st0{fill:#41A0D9;}
	.st1{fill:#FFFFFF;}
	.st2{fill:#6ABD45;}
	.st3{fill:#80C342;}
	.st4{fill:#059447;}
	.st5{fill:#8CD0C0;}
	.st6{fill:#E9EC94;}
	.st7{fill:#CBDB2A;}
	.st8{fill:url(#SVGID_1_);}
</style>
<path class="st0" d="M1828,1000c0,29.7-1.6,59.1-4.6,88c-2.8,26.7-6.9,53-12.2,78.9c-11.7,57.3-29.4,112.4-52.3,164.8
	c-12.4,28.4-26.4,56-41.8,82.7c-31.4,54.3-68.8,104.6-111.3,150.2c-26-15.7-72.9-33.7-178-74.3c-122.4-47.3-142.1-55.2-159.8-42.4
	c-40.8,29.4-148.7,75.1-111.8,140.7c10.3,18.2,106.1,72.8,144.2,96.9c8.1,5.1,13.6,8.8,15.1,10.6c6.8,7.6,24.3,27.1,50.8,46.9
	c-110.4,54.6-234.8,85.2-366.3,85.2c-166.9,0-322.2-49.4-452.2-134.3c-14.1-9.2-28-18.9-41.5-28.9c30.3-47.6,10-122-21.8-166.7
	c-19.3-27.1-38.1-36.5-150.4-80.2c-17.2-6.7-36.5-14.2-58.4-22.6c-1.4-0.6-2.9-1.1-4.3-1.7c-0.1-0.2-0.2-0.3-0.2-0.4
	c-1.1-2-2.1-4-3.2-6c0-0.1-0.1-0.1-0.1-0.2c-1-2-2.1-4-3.1-6c-0.1-0.3-0.3-0.6-0.5-0.9c-1-2-2.1-4-3.1-6.1c0-0.1-0.1-0.2-0.1-0.3
	c-0.9-1.8-1.8-3.6-2.7-5.4c-0.3-0.6-0.6-1.3-0.9-1.9c-1-1.9-1.9-3.9-2.9-5.9c-0.8-1.7-1.6-3.3-2.4-5c0-0.1-0.1-0.2-0.1-0.2
	c-0.4-0.8-0.8-1.6-1.2-2.5c-0.9-1.9-1.8-3.8-2.7-5.7c-1-2.2-2.1-4.5-3.1-6.8c-1-2.3-2-4.5-3-6.8c-0.9-2.1-1.8-4.2-2.7-6.2
	c-1.1-2.5-2.2-5-3.2-7.6c-0.9-2.1-1.7-4.2-2.6-6.3c-0.2-0.5-0.4-0.9-0.6-1.4c-0.7-1.8-1.5-3.6-2.2-5.4c-1-2.6-2.1-5.2-3.1-7.9
	c-0.8-2-1.6-4.1-2.4-6.2c-1.5-3.9-2.9-7.8-4.3-11.7c-0.5-1.5-1.1-3-1.6-4.5c-1-2.8-2-5.6-2.9-8.5c-0.1-0.4-0.3-0.8-0.4-1.2
	c-0.4-1.3-0.9-2.6-1.3-3.9c-0.5-1.5-1-3.1-1.5-4.6c-0.5-1.5-1-3-1.5-4.5c-0.8-2.5-1.6-5-2.4-7.5c-0.7-2.3-1.4-4.6-2.1-6.9
	c-0.1-0.4-0.3-0.8-0.4-1.2c-0.6-1.9-1.2-3.9-1.7-5.8c-0.2-0.8-0.4-1.5-0.7-2.3c-0.5-1.9-1.1-3.8-1.6-5.6c-0.1-0.4-0.2-0.8-0.3-1.2
	c-0.5-1.9-1.1-3.8-1.6-5.7c-0.3-0.9-0.5-1.8-0.7-2.7c-0.4-1.6-0.8-3.1-1.2-4.7c-0.2-0.8-0.5-1.7-0.7-2.6c-0.3-1.3-0.7-2.7-1-4
	c-0.3-1.3-0.7-2.6-1-3.9c-0.4-1.5-0.7-2.9-1.1-4.4c-0.2-0.9-0.5-1.9-0.7-2.9c-0.6-2.4-1.1-4.8-1.7-7.3c-0.6-2.6-1.2-5.2-1.7-7.8
	c-0.6-2.6-1.1-5.2-1.7-7.8c0-0.1,0-0.1,0-0.2c-1-4.6-1.9-9.2-2.7-13.7c-0.1-0.4-0.2-0.8-0.2-1.2c-0.3-1.8-0.7-3.7-1-5.6
	c-0.3-1.7-0.6-3.4-0.9-5.1c-0.3-1.8-0.6-3.5-0.9-5.3c-0.1-0.8-0.3-1.7-0.4-2.5c-0.3-1.7-0.6-3.4-0.8-5.1c-0.1-0.2-0.1-0.5-0.1-0.7
	c-0.3-1.8-0.6-3.5-0.8-5.3c-0.1-0.4-0.1-0.8-0.2-1.3c-0.3-1.8-0.5-3.6-0.8-5.4c0-0.2-0.1-0.4-0.1-0.6c-0.1-0.9-0.2-1.7-0.4-2.6
	c-0.2-1.6-0.4-3.2-0.6-4.8c-0.1-0.9-0.2-1.7-0.4-2.6c-0.2-1.7-0.4-3.3-0.6-5c-0.1-0.8-0.2-1.6-0.3-2.4c-0.2-1.7-0.4-3.5-0.6-5.2
	c-0.1-0.9-0.2-1.8-0.3-2.8c-0.2-1.4-0.3-2.7-0.5-4.1c-0.2-1.4-0.3-2.8-0.4-4.2c-0.2-1.9-0.4-3.8-0.5-5.7c-0.3-2.6-0.5-5.1-0.7-7.7
	c-0.2-2.6-0.4-5.2-0.6-7.8c-0.2-2.3-0.3-4.7-0.5-7.1c0-0.7-0.1-1.4-0.1-2.1c-0.1-2.1-0.3-4.2-0.4-6.2c0-0.1,0-0.2,0-0.3
	c-0.1-2.5-0.3-5-0.4-7.4c0-0.2,0-0.4,0-0.5c-0.1-2-0.2-4-0.3-6c-0.1-1.4-0.1-2.7-0.2-4.1c-0.1-1.8-0.1-3.5-0.2-5.3
	c-0.1-2.6-0.1-5.2-0.2-7.9c0-2.6-0.1-5.3-0.1-7.9c0-2.6,0-5.3,0-7.9c0-2,0-4,0-6.1c0-1.3,0-2.6,0-3.9c0.1-8.5,0.3-17.1,0.7-25.5
	l0.2-4.1c0-0.1,0-0.3,0-0.4c0.1-1.6,0.2-3.1,0.2-4.7c0.1-1.3,0.1-2.6,0.2-3.8c0.1-1.3,0.1-2.5,0.2-3.7c0.1-1,0.1-2.1,0.2-3.1
	c0.1-1.4,0.2-2.7,0.3-4.1c0.2-3.5,0.5-7,0.8-10.5c0.1-1.4,0.2-2.8,0.4-4.2c0.1-1.6,0.3-3.3,0.4-4.9c0.3-3.3,0.6-6.5,1-9.7
	c0.1-1.3,0.3-2.6,0.4-3.9c0.4-3.7,0.8-7.4,1.3-11.1c0.3-2.5,0.6-5,1-7.4c0.5-3.7,1-7.4,1.6-11c0.2-1.1,0.3-2.3,0.5-3.4
	c0.9-5.8,1.8-11.6,2.8-17.4c0.2-1.2,0.4-2.4,0.6-3.5c0.3-1.8,0.6-3.5,1-5.3c0.2-1.3,0.5-2.7,0.8-4c0-0.1,0-0.1,0-0.2
	c0.3-1.5,0.5-2.9,0.8-4.3c0.3-1.5,0.6-2.9,0.9-4.3c0.4-1.9,0.8-3.8,1.2-5.7c0.2-1,0.4-2,0.6-3c0.9-4.3,1.9-8.6,2.9-12.9
	c0.3-1.4,0.6-2.9,1-4.3c1.7-7.4,3.6-14.7,5.5-22c0.7-2.6,1.4-5.1,2.1-7.7c0.5-2,1.1-3.9,1.6-5.8c0.4-1.4,0.8-2.7,1.2-4.1
	c1.3-4.4,2.6-8.7,3.9-13.1c0.4-1.3,0.8-2.6,1.2-4c0.7-2.2,1.4-4.3,2.1-6.5c0.4-1.4,0.9-2.7,1.3-4.1c1.3-3.8,2.5-7.6,3.8-11.4
	c0.5-1.4,1-2.9,1.5-4.3c2-5.7,4-11.4,6.2-17c42.7-113.9,109.7-216,194.8-299.7C568.6,262.8,773.7,172,1000,172
	c153.4,0,297.1,41.7,420.2,114.4c0,0,0,0,0,0c57.5,34,110.6,74.7,158.1,121.1c3.3,3.2,6.5,6.4,9.7,9.6
	c27.6,27.9,53.3,57.7,76.8,89.3c4.3,5.8,8.5,11.6,12.6,17.5C1772.3,658.5,1828,822.7,1828,1000z"/>
<path class="st0" d="M275.6,1395.2c21.9,8.5,41.3,15.9,58.4,22.6c-10.1,13.1-18.4,26.5-24.7,39c-1.4-2.1-2.7-4.1-4-6.2
	c-1.2-1.8-2.3-3.6-3.5-5.4c-0.2-0.3-0.4-0.7-0.7-1c-1.2-1.9-2.4-3.8-3.6-5.7c-0.2-0.4-0.5-0.7-0.7-1.1c-1.1-1.8-2.3-3.6-3.4-5.5
	c-1.2-1.9-2.4-3.9-3.6-5.8c-0.2-0.3-0.4-0.6-0.6-1c-1.1-1.8-2.2-3.6-3.3-5.5c-1.2-2-2.3-4-3.5-6c-0.6-1.1-1.2-2.1-1.8-3.2
	c-2.1-3.7-4.2-7.4-6.2-11.1c-1-1.8-2-3.6-2.9-5.4c-0.1-0.2-0.2-0.4-0.3-0.5C272.7,1394.1,274.2,1394.6,275.6,1395.2z"/>
<path class="st0" d="M473,1638.7c-47.4-39.2-90.4-83.5-128.1-132.2c21-7.1,47.8-13.8,78.7-5.3c5.2,1.4,52.5,15.2,66.5,52.2
	C499.9,1579.6,490.9,1611,473,1638.7z"/>
<path class="st0" d="M1594,1576.9c-41,42.2-86.5,80.1-135.7,112.9c-57.5-23.4-106.4-52.9-142.2-74.6
	c-46.7-28.2-111.9-67.6-104.4-94.9c9.9-36.4,148.3-51.2,261.1,0c48,21.8,45.9,34.9,80.7,47.5
	C1566.4,1572.3,1579.9,1575.3,1594,1576.9z"/>
<path class="st1" d="M1420.2,286.4c-60.4,34.3-149.6,56.7-218.1,61.2c-13.8,0.9-25.4,1-166.2-14.2
	c-245.4-26.6-251.2-31.3-284.8-23.7C625.2,338,616.9,424.7,513.8,428.3c-31.2,1.1-64.2-5.7-94.6-18.4
	C568.6,262.8,773.7,172,1000,172C1153.4,172,1297.1,213.7,1420.2,286.4z"/>
<path class="st1" d="M1414.7,1716.8c-15.8,9.2-32,17.8-48.4,26c-110.4,54.6-234.8,85.2-366.3,85.2c-166.9,0-322.2-49.4-452.2-134.3
	c85.2-16.6,187.8-9.6,260.3,6.9c62.4,14.2,102.1,35.2,180.4,33.2c94.4-2.3,130.4-35.1,199.4-47.5c35.8-6.4,74.5-6.3,112.5-1.1
	C1340.7,1690.8,1380.2,1701.9,1414.7,1716.8z"/>
<path class="st2" d="M1594,1576.9c-41,42.2-86.5,80.1-135.7,112.9c-57.5-23.4-106.4-52.9-142.2-74.6
	c-46.7-28.2-111.9-67.6-104.4-94.9c9.9-36.4,148.3-51.2,261.1,0c48,21.8,45.9,34.9,80.7,47.5
	C1566.4,1572.3,1579.9,1575.3,1594,1576.9z"/>
<path class="st2" d="M1828,1000c0,29.7-1.6,59.1-4.6,88c-2.8,26.7-6.9,53-12.2,78.9c-0.1,0.7-0.3,1.3-0.4,2
	c-6,28.9-13.4,57.2-22.4,84.8c-8.5,26.6-18.4,52.6-29.5,77.9c-24.9-2.9-50.1-3.5-72.6-1.3c-26.7,2.6-61.7,6-91.9,22.5
	c-11.4,6.2-22.2,14.3-31.5,25c-28.2,32.1-24.4,65.3-57,80.7c-26.5,12.6-63.3,6.9-71.2-9.5c-8.7-18,24.5-34.6,23.7-71.2
	c-0.8-40.2-41.8-67.6-47.5-71.2c-4.9-3.2-46.7-29.4-85.4-14.2c-38.9,15.3-33.5,56.2-71.2,99.7c-50.5,58.3-142.2,79.6-161.4,57
	c-13.4-15.8,16.3-43.7,57-151.9c29.4-78.3,22-85.3,47.5-132.9c23.8-44.6,32.6-42.7,71.2-109.2c30.6-52.8,30.9-63.9,47.5-71.2
	c42.8-18.9,79.6,38.3,132.9,23.7c43.6-12,63-62.3,66.5-71.2c28.4-73.7-13.8-169.9-57-175.7c-46.1-6.2-64.4,94.7-142.4,104.4
	c-45.3,5.7-98.6-21-109.2-57c-8.4-28.7,19.6-63.8,76-132.9c45.1-55.2,86.8-97.4,118.7-128.2c42.5-41.1,75-72.5,104.4-94.9
	c21.8-16.6,46.3-31.6,72.4-44.6c3.3,3.2,6.5,6.4,9.7,9.6c27.6,27.9,53.3,57.7,76.8,89.3c4.3,5.8,8.5,11.6,12.6,17.5
	C1772.3,658.5,1828,822.7,1828,1000z"/>
<path class="st2" d="M960,912.6c35.1-1.2,74.4,32.8,76,64.1c1.7,32.9-39.3,38.5-59.3,83.1c-30.6,68.4,37.2,118.9,11.9,185.1
	c-21.2,55.4-97,94.7-135.3,76c-57.8-28.4-23.3-186.6-19-206.5C836.5,1103.8,879.3,915.3,960,912.6z"/>
<path class="st3" d="M703.7,468.7c-30.2,6.6-25.9,45.9-59.3,57c-42.6,14-73.9-41.7-118.7-28.5c-27.8,8.2-47,38.7-52.2,64.1
	c-8.9,43.3,26,57.6,40.4,130.5c11.2,57-4.7,75.4,11.9,90.2c29.2,26.1,80.4-29,178-30.9c90.2-1.8,135.1,43.6,159,19
	c19.7-20.3,4.9-67.3-16.6-135.3c-10.2-32.3-17.7-55.6-35.6-83.1C803.7,541.3,750,458.5,703.7,468.7z"/>
<path class="st2" d="M473,1638.7c-47.4-39.2-90.4-83.5-128.1-132.2c21-7.1,47.8-13.8,78.7-5.3c5.2,1.4,52.5,15.2,66.5,52.2
	C499.9,1579.6,490.9,1611,473,1638.7z"/>
<path class="st2" d="M573.1,1204.5c-17.8,50.5-53.4,80.6-76,99.7c-55.8,47.3-81.9,34.7-130.5,78.3c-12.2,10.9-23.1,23-32.6,35.3
	c-10.1,13.1-18.4,26.5-24.7,39c-1.4-2.1-2.7-4.1-4-6.2c-1.2-1.8-2.3-3.6-3.5-5.4c-0.2-0.3-0.4-0.7-0.7-1c-1.2-1.9-2.4-3.8-3.6-5.7
	c-0.2-0.4-0.5-0.7-0.7-1.1c-1.1-1.8-2.3-3.6-3.4-5.5c-1.2-1.9-2.4-3.9-3.6-5.8c-0.2-0.3-0.4-0.6-0.6-1c-1.1-1.8-2.2-3.6-3.3-5.5
	c-1.2-2-2.3-4-3.5-6c-0.6-1.1-1.2-2.1-1.8-3.2c-2.1-3.7-4.2-7.4-6.2-11.1c-1-1.8-2-3.6-2.9-5.4c-0.1-0.2-0.2-0.4-0.3-0.5
	c-0.1-0.2-0.2-0.3-0.2-0.4c-1.1-2-2.1-4-3.2-6c0-0.1-0.1-0.1-0.1-0.2c-1-2-2.1-4-3.1-6c-0.1-0.3-0.3-0.6-0.5-0.9c-1-2-2.1-4-3.1-6.1
	c0-0.1-0.1-0.2-0.1-0.3c-0.9-1.8-1.8-3.6-2.7-5.4c-0.3-0.6-0.6-1.3-0.9-1.9c-1-1.9-1.9-3.9-2.9-5.9c-0.8-1.7-1.6-3.3-2.4-5
	c0-0.1-0.1-0.2-0.1-0.2c-0.4-0.8-0.8-1.6-1.2-2.5c-0.9-1.9-1.8-3.8-2.7-5.7c-1-2.2-2.1-4.5-3.1-6.8c-1-2.3-2-4.5-3-6.8
	c-0.9-2.1-1.8-4.2-2.7-6.2c-1.1-2.5-2.2-5-3.2-7.6c-0.9-2.1-1.7-4.2-2.6-6.3c-0.2-0.5-0.4-0.9-0.6-1.4c-0.7-1.8-1.5-3.6-2.2-5.4
	c-1-2.6-2.1-5.2-3.1-7.9c-0.8-2-1.6-4.1-2.4-6.2c-1.5-3.9-2.9-7.8-4.3-11.7c-0.5-1.5-1.1-3-1.6-4.5c-1-2.8-2-5.6-2.9-8.5
	c-0.1-0.4-0.3-0.8-0.4-1.2c-0.4-1.3-0.9-2.6-1.3-3.9c-0.5-1.5-1-3.1-1.5-4.6c-0.5-1.5-1-3-1.5-4.5c-0.8-2.5-1.6-5-2.4-7.5
	c-0.7-2.3-1.4-4.6-2.1-6.9c-0.1-0.4-0.3-0.8-0.4-1.2c-0.6-1.9-1.2-3.9-1.7-5.8c-0.2-0.8-0.4-1.5-0.7-2.3c-0.5-1.9-1.1-3.8-1.6-5.6
	c-0.1-0.4-0.2-0.8-0.3-1.2c-0.5-1.9-1.1-3.8-1.6-5.7c-0.3-0.9-0.5-1.8-0.7-2.7c-0.4-1.6-0.8-3.1-1.2-4.7c-0.2-0.8-0.5-1.7-0.7-2.6
	c-0.3-1.3-0.7-2.7-1-4c-0.3-1.3-0.7-2.6-1-3.9c-0.4-1.5-0.7-2.9-1.1-4.4c-0.2-0.9-0.5-1.9-0.7-2.9c-0.6-2.4-1.1-4.8-1.7-7.3
	c-0.6-2.6-1.2-5.2-1.7-7.8c-0.6-2.6-1.1-5.2-1.7-7.8c0-0.1,0-0.1,0-0.2c-1-4.6-1.9-9.2-2.7-13.7c-0.1-0.4-0.2-0.8-0.2-1.2
	c-0.3-1.8-0.7-3.7-1-5.6c-0.3-1.7-0.6-3.4-0.9-5.1c-0.3-1.8-0.6-3.5-0.9-5.3c-0.1-0.8-0.3-1.7-0.4-2.5c-0.3-1.7-0.6-3.4-0.8-5.1
	c-0.1-0.2-0.1-0.5-0.1-0.7c-0.3-1.8-0.6-3.5-0.8-5.3c-0.1-0.4-0.1-0.8-0.2-1.3c-0.3-1.8-0.5-3.6-0.8-5.4c0-0.2-0.1-0.4-0.1-0.6
	c-0.1-0.9-0.2-1.7-0.4-2.6c-0.2-1.6-0.4-3.2-0.6-4.8c-0.1-0.9-0.2-1.7-0.4-2.6c-0.2-1.7-0.4-3.3-0.6-5c-0.1-0.8-0.2-1.6-0.3-2.4
	c-0.2-1.7-0.4-3.5-0.6-5.2c-0.1-0.9-0.2-1.8-0.3-2.8c-0.2-1.4-0.3-2.7-0.5-4.1c-0.2-1.4-0.3-2.8-0.4-4.2c-0.2-1.9-0.4-3.8-0.5-5.7
	c-0.3-2.6-0.5-5.1-0.7-7.7c-0.2-2.6-0.4-5.2-0.6-7.8c-0.2-2.3-0.3-4.7-0.5-7.1c0-0.7-0.1-1.4-0.1-2.1c-0.1-2.1-0.3-4.2-0.4-6.2
	c0-0.1,0-0.2,0-0.3c-0.1-2.5-0.3-5-0.4-7.4c0-0.2,0-0.4,0-0.5c-0.1-2-0.2-4-0.3-6c-0.1-1.4-0.1-2.7-0.2-4.1
	c-0.1-1.8-0.1-3.5-0.2-5.3c-0.1-2.6-0.1-5.2-0.2-7.9c0-2.6-0.1-5.3-0.1-7.9c0-2.6,0-5.3,0-7.9c0-2,0-4,0-6.1c0-1.3,0-2.6,0-3.9
	c0.1-8.5,0.3-17.1,0.7-25.5l0.2-4.1c0-0.1,0-0.3,0-0.4c0.1-1.6,0.2-3.1,0.2-4.7c0.1-1.3,0.1-2.6,0.2-3.8c0.1-1.3,0.1-2.5,0.2-3.7
	c0.1-1,0.1-2.1,0.2-3.1c0.1-1.4,0.2-2.7,0.3-4.1c0.2-3.5,0.5-7,0.8-10.5c0.1-1.4,0.2-2.8,0.4-4.2c0.1-1.6,0.3-3.3,0.4-4.9
	c0.3-3.3,0.6-6.5,1-9.7c0.1-1.3,0.3-2.6,0.4-3.9c0.4-3.7,0.8-7.4,1.3-11.1c0.3-2.5,0.6-5,1-7.4c0.5-3.7,1-7.4,1.6-11
	c0.2-1.1,0.3-2.3,0.5-3.4c0.9-5.8,1.8-11.6,2.8-17.4c0.2-1.2,0.4-2.4,0.6-3.5c0.3-1.8,0.6-3.5,1-5.3c0.2-1.3,0.5-2.7,0.8-4
	c0-0.1,0-0.1,0-0.2c0.3-1.5,0.5-2.9,0.8-4.3c0.3-1.5,0.6-2.9,0.9-4.3c0.4-1.9,0.8-3.8,1.2-5.7c0.2-1,0.4-2,0.6-3
	c0.9-4.3,1.9-8.6,2.9-12.9c0.3-1.4,0.6-2.9,1-4.3c1.7-7.4,3.6-14.7,5.5-22c0.7-2.6,1.4-5.1,2.1-7.7c0.5-2,1.1-3.9,1.6-5.8
	c0.4-1.4,0.8-2.7,1.2-4.1c1.3-4.4,2.6-8.7,3.9-13.1c0.4-1.3,0.8-2.6,1.2-4c0.7-2.2,1.4-4.3,2.1-6.5c0.4-1.4,0.9-2.7,1.3-4.1
	c1.3-3.8,2.5-7.6,3.8-11.4c0.5-1.4,1-2.9,1.5-4.3c2-5.7,4-11.4,6.2-17c40.6,17.5,75.4,41.6,99.6,79.5
	c44.6,69.8,13.5,123.7,66.5,170.9c53.4,47.6,105.5,10.9,154.3,59.3C591.4,1065.8,592.9,1148.5,573.1,1204.5z"/>
<path class="st4" d="M1828,1000c0,29.7-1.6,59.1-4.6,88c-93.8-1.4-175.8-32.2-196.4-78.1c-11.8-26.4-6.9-65.8-4.8-83.1
	c9.3-74.6,46.9-90.7,45.1-137.7c-2-52.6-52.5-113.2-104.4-118.7c-62.4-6.6-80.9,71-180.4,90.2c-58.4,11.3-117.1-3-118.7-16.6
	c-1.4-12.2,43.8-16.6,90.2-49.8c58.1-41.6,90.2-22,118.7-65.8c38.1-58.6,112.8-82.2,204.7-104.6C1772.3,658.5,1828,822.7,1828,1000z
	"/>
<path class="st4" d="M914.9,1176c-14-5.8-43.5,12.7-47.5,40.4c-4.9,34.2,32.6,59.9,47.5,54.6C935.8,1263.5,937.2,1185.4,914.9,1176z
	"/>
<path class="st4" d="M211.6,1253.9c-0.8-2.5-1.6-5-2.4-7.5c-0.7-2.3-1.4-4.6-2.1-6.9c-0.1-0.4-0.3-0.8-0.4-1.2
	c-0.6-1.9-1.2-3.9-1.7-5.8c-0.2-0.8-0.4-1.5-0.7-2.3c-0.5-1.9-1.1-3.8-1.6-5.6c-0.1-0.4-0.2-0.8-0.3-1.2c-0.5-1.9-1.1-3.8-1.6-5.7
	c-0.3-0.9-0.5-1.8-0.7-2.7c-0.4-1.6-0.8-3.1-1.2-4.7c-0.2-0.8-0.5-1.7-0.7-2.6c-0.3-1.3-0.7-2.7-1-4c-0.3-1.3-0.7-2.6-1-3.9
	c-0.4-1.5-0.7-2.9-1.1-4.4c-0.2-0.9-0.5-1.9-0.7-2.9c-0.6-2.4-1.1-4.8-1.7-7.3c-0.6-2.6-1.2-5.2-1.7-7.8c-0.6-2.6-1.1-5.2-1.7-7.8
	c0-0.1,0-0.1,0-0.2c-1-4.6-1.9-9.2-2.7-13.7c-0.1-0.4-0.2-0.8-0.2-1.2c-0.3-1.8-0.7-3.7-1-5.6c-0.3-1.7-0.6-3.4-0.9-5.1
	c-0.3-1.8-0.6-3.5-0.9-5.3c-0.1-0.8-0.3-1.7-0.4-2.5c-0.3-1.7-0.6-3.4-0.8-5.1c-0.1-0.2-0.1-0.5-0.1-0.7c-0.3-1.8-0.6-3.5-0.8-5.3
	c-0.1-0.4-0.1-0.8-0.2-1.3c-0.3-1.8-0.5-3.6-0.8-5.4c0-0.2-0.1-0.4-0.1-0.6c-0.1-0.9-0.2-1.7-0.4-2.6c-0.2-1.6-0.4-3.2-0.6-4.8
	c-0.1-0.9-0.2-1.7-0.4-2.6c-0.2-1.7-0.4-3.3-0.6-5c-0.1-0.8-0.2-1.6-0.3-2.4c-0.2-1.7-0.4-3.5-0.6-5.2c-0.1-0.9-0.2-1.8-0.3-2.8
	c-0.2-1.4-0.3-2.7-0.5-4.1c-0.2-1.4-0.3-2.8-0.4-4.2c-0.2-1.9-0.4-3.8-0.5-5.7c-0.3-2.6-0.5-5.1-0.7-7.7c-0.2-2.6-0.4-5.2-0.6-7.8
	c-0.2-2.3-0.3-4.7-0.5-7.1c0-0.7-0.1-1.4-0.1-2.1c-0.1-2.1-0.3-4.2-0.4-6.2c0-0.1,0-0.2,0-0.3c-0.1-2.5-0.3-5-0.4-7.4
	c0-0.2,0-0.4,0-0.5c-0.1-2-0.2-4-0.3-6c-0.1-1.4-0.1-2.7-0.2-4.1c-0.1-1.8-0.1-3.5-0.2-5.3c-0.1-2.6-0.1-5.2-0.2-7.9
	c0-2.6-0.1-5.3-0.1-7.9c0-2.6,0-5.3,0-7.9c0-2,0-4,0-6.1c0-1.3,0-2.6,0-3.9c0.1-8.5,0.3-17.1,0.7-25.5l0.2-4.1c0-0.1,0-0.3,0-0.4
	c0.1-1.6,0.2-3.1,0.2-4.7c0.1-1.3,0.1-2.6,0.2-3.8c0.1-1.3,0.1-2.5,0.2-3.7c0.1-1,0.1-2.1,0.2-3.1c0.1-1.4,0.2-2.7,0.3-4.1
	c0.2-3.5,0.5-7,0.8-10.5c0.1-1.4,0.2-2.8,0.4-4.2c0.1-1.6,0.3-3.3,0.4-4.9c0.3-3.3,0.6-6.5,1-9.7c0.1-1.3,0.3-2.6,0.4-3.9
	c0.4-3.7,0.8-7.4,1.3-11.1c0.3-2.5,0.6-5,1-7.4c0.5-3.7,1-7.4,1.6-11c0.2-1.1,0.3-2.3,0.5-3.4c0.9-5.8,1.8-11.6,2.8-17.4
	c0.2-1.2,0.4-2.4,0.6-3.5c0.3-1.8,0.6-3.5,1-5.3c0.2-1.3,0.5-2.7,0.8-4c0-0.1,0-0.1,0-0.2c64.1,15.6,125.2,66.9,146.7,123.1
	C370.5,1064.2,294.8,1189.3,211.6,1253.9z"/>
<path class="st5" d="M550.2,542.3c-4.4,1.4-21.1,6.8-26.9,20.6c-10.8,25.9,23.8,64.9,45.9,82.3c78.1,61.4,227.5,31.9,238.9-14.2
	c7-28.1-34.7-71.9-76-79.1c-33.9-6-40.6,17.5-82.3,14.2C603.5,562.4,584.7,531.2,550.2,542.3z"/>
<path class="st5" d="M1664.8,506.3c-38.3,31-100.6,38.3-128.8,12.2c-1.4-1.3-18.5-17.7-15.8-39.6c3.2-26.1,33.3-48.6,67.8-61.9
	C1615.7,445,1641.3,474.8,1664.8,506.3z"/>
<path class="st0" d="M506.3,1664.8c-11.3-8.4-22.4-17.1-33.3-26.1c17.8-27.7,26.9-59.1,17-85.2c-14-37.1-61.2-50.8-66.5-52.2
	c-30.9-8.5-57.7-1.8-78.7,5.3c-12.5-16.1-24.3-32.7-35.6-49.7c6.3-12.5,14.7-25.9,24.7-39c112.4,43.7,131.1,53.2,150.4,80.2
	C516.4,1542.8,536.6,1617.2,506.3,1664.8z"/>
<path class="st6" d="M275.6,1395.2c21.9,8.5,41.3,15.9,58.4,22.6c-10.1,13.1-18.4,26.5-24.7,39c-1.4-2.1-2.7-4.1-4-6.2
	c-1.2-1.8-2.3-3.6-3.5-5.4c-0.2-0.3-0.4-0.7-0.7-1c-1.2-1.9-2.4-3.8-3.6-5.7c-0.2-0.4-0.5-0.7-0.7-1.1c-1.1-1.8-2.3-3.6-3.4-5.5
	c-1.2-1.9-2.4-3.9-3.6-5.8c-0.2-0.3-0.4-0.6-0.6-1c-1.1-1.8-2.2-3.6-3.3-5.5c-1.2-2-2.3-4-3.5-6c-0.6-1.1-1.2-2.1-1.8-3.2
	c-2.1-3.7-4.2-7.4-6.2-11.1c-1-1.8-2-3.6-2.9-5.4c-0.1-0.2-0.2-0.4-0.3-0.5C272.7,1394.1,274.2,1394.6,275.6,1395.2z"/>
<path class="st6" d="M473,1638.7c-47.4-39.2-90.4-83.5-128.1-132.2c21-7.1,47.8-13.8,78.7-5.3c5.2,1.4,52.5,15.2,66.5,52.2
	C499.9,1579.6,490.9,1611,473,1638.7z"/>
<path class="st0" d="M1605.8,1564.4c-3.9,4.2-7.9,8.3-11.8,12.5c-14-1.5-27.6-4.5-40.5-9.2c-34.8-12.6-32.7-25.7-80.7-47.5
	c-112.8-51.2-251.2-36.4-261.1,0c-7.4,27.4,57.8,66.8,104.4,94.9c35.8,21.6,84.7,51.2,142.2,74.6c-14.2,9.5-28.7,18.5-43.6,27.1
	c-15.8,9.2-32,17.8-48.4,26c-26.4-19.9-44-39.3-50.8-46.9c-1.5-1.7-7-5.5-15.1-10.6c-38.1-24.1-133.9-78.7-144.2-96.9
	c-37-65.6,71-111.3,111.8-140.7c17.7-12.8,37.5-4.9,159.8,42.4C1532.9,1530.8,1579.8,1548.7,1605.8,1564.4z"/>
<path class="st6" d="M1594,1576.9c-41,42.2-86.5,80.1-135.7,112.9c-57.5-23.4-106.4-52.9-142.2-74.6
	c-46.7-28.2-111.9-67.6-104.4-94.9c9.9-36.4,148.3-51.2,261.1,0c48,21.8,45.9,34.9,80.7,47.5
	C1566.4,1572.3,1579.9,1575.3,1594,1576.9z"/>
<path class="st7" d="M1810.8,1168.8c-6,28.9-13.4,57.2-22.4,84.8c-10.7-4.8-22.5-8.8-35.6-11.2c-90.9-16.7-143.3,58.5-218.4,26.1
	c-25.8-11.1-19.1-19.8-59.3-42.7c-34.6-19.7-94.4-53.8-137.7-35.6c-62.1,26.1-43.8,140.3-99.7,154.3c-19.9,5-44.3-4-52.2-19
	c-6.8-12.9-3.5-34,64.1-118.7c67.4-84.4,101.9-126.8,142.4-135.3c47.5-10,92,8.1,118.7,19c43.5,17.7,50.2,33.6,83.1,52.2
	C1681.2,1192.3,1750.1,1145.7,1810.8,1168.8z"/>
<radialGradient id="SVGID_1_" cx="1000" cy="1000" r="1000" gradientUnits="userSpaceOnUse">
	<stop  offset="0" style="stop-color:#2484C6;stop-opacity:0"/>
	<stop  offset="1" style="stop-color:#2484C6;stop-opacity:0.5"/>
</radialGradient>
<circle class="st8" cx="1000" cy="1000" r="1000"/>
</svg>
