<?xml version="1.0" encoding="utf-8"?>
<!-- Generator: Adobe Illustrator 23.0.3, SVG Export Plug-In . SVG Version: 6.00 Build 0)  -->
<svg version="1.1" id="Layer_1" xmlns="http://www.w3.org/2000/svg" xmlns:xlink="http://www.w3.org/1999/xlink" x="0px" y="0px"
	 viewBox="0 0 2000 2000" style="enable-background:new 0 0 2000 2000;" xml:space="preserve">
<style type="text/css">
	.st0{fill:#2F4F4F;}
</style>
<path class="st0" d="M1728.7,1118H271.3c-48.8,0-88.4-39.6-88.4-88.4v-59.1c0-48.8,39.6-88.4,88.4-88.4h1457.3
	c48.8,0,88.4,39.6,88.4,88.4v59.1C1817,1078.4,1777.5,1118,1728.7,1118z"/>
<path class="st0" d="M1728.7,535.3H271.3c-48.8,0-88.4-39.6-88.4-88.4v-59.1c0-48.8,39.6-88.4,88.4-88.4h1457.3
	c48.8,0,88.4,39.6,88.4,88.4v59.1C1817,495.7,1777.5,535.3,1728.7,535.3z"/>
<path class="st0" d="M1728.7,1700.6H271.3c-48.8,0-88.4-39.6-88.4-88.4v-59.1c0-48.8,39.6-88.4,88.4-88.4h1457.3
	c48.8,0,88.4,39.6,88.4,88.4v59.1C1817,1661,1777.5,1700.6,1728.7,1700.6z"/>
</svg>
