<?xml version="1.0" encoding="iso-8859-1"?>
<!-- Generator: Adobe Illustrator 23.0.3, SVG Export Plug-In . SVG Version: 6.00 Build 0)  -->
<svg version="1.1" xmlns="http://www.w3.org/2000/svg" xmlns:xlink="http://www.w3.org/1999/xlink" x="0px" y="0px"
	 viewBox="0 0 2000 2000" style="enable-background:new 0 0 2000 2000;" xml:space="preserve">
<g id="Layer_2_copy">
	<radialGradient id="SVGID_1_" cx="1000" cy="1000" r="1000" gradientUnits="userSpaceOnUse">
		<stop  offset="0" style="stop-color:#D44C32;stop-opacity:0.0335"/>
		<stop  offset="1" style="stop-color:#E14F33;stop-opacity:0.3"/>
	</radialGradient>
	<circle style="fill:url(#SVGID_1_);" cx="1000" cy="1000" r="1000"/>
</g>
<g id="Layer_1">
	<path style="fill:#E04527;" d="M1942.46,1000c0,65.42-6.66,129.28-19.35,190.94c-29.76,144.6-92.64,277.12-180.38,389.26
		c-58.32,74.58-127.65,140.14-205.53,194.26c-152.4,105.92-337.55,168-537.2,168c-220.13,0-422.62-75.47-583.03-201.94
		C198.07,1567.93,57.54,1300.37,57.54,1000c0-22.91,0.82-45.63,2.42-68.13C85.39,576.01,308.39,274.8,619.87,137.35
		C736.15,86.03,864.75,57.54,1000,57.54c144.93,0,282.22,32.72,404.88,91.17c132.18,62.97,247.39,155.83,336.88,269.83
		C1867.49,578.7,1942.46,780.6,1942.46,1000z"/>
	<path style="fill:#FFFFFF;" d="M1404.88,148.705c-48.612,34.324-149.078,54.361-227.726,28.123
		c-48.141-16.06-55.388-38.528-109.797-48.791c-46.633-8.803-62.004,3.817-170.783,20.329
		c-77.791,11.809-117.685,17.605-166.721,12.195c-21.516-2.366-76.075-8.378-109.976-23.213
		C736.149,86.032,864.748,57.541,1000,57.541C1144.931,57.541,1282.219,90.254,1404.88,148.705z"/>
	<path style="fill:#912D20;" d="M1742.73,1580.2c-58.32,74.58-127.65,140.14-205.53,194.26c-152.4,105.92-337.55,168-537.2,168
		c-220.13,0-422.62-75.47-583.03-201.94C198.07,1567.93,57.54,1300.37,57.54,1000c0-22.91,0.82-45.63,2.42-68.13
		c44.98,25.87,100.77,52.64,172.32,77.04c213.45,72.79,264.39,21.24,414.2,103.55c191.3,105.1,166.15,220.96,317.13,265.35
		c164.23,48.29,229.61-78.35,427.14-32.36c116.46,27.11,193.56,94.36,278.29,168.27C1691.61,1533.41,1717,1555.55,1742.73,1580.2z"
		/>
	<path style="fill:#FFFFFF;" d="M1537.2,1774.46c-152.4,105.92-337.55,168-537.2,168c-220.13,0-422.62-75.47-583.03-201.94
		c48.96-15.37,116.89-18.79,124.92-19.2c123.17-6.23,172.41,43.92,294.85,73.71c33.47,8.14,58.7,11.43,405.44-9.22
		C1403.32,1776.21,1489.48,1770.05,1537.2,1774.46z"/>
	<path style="fill:#912D20;" d="M1408.011,432.91c-52.852-71.411-197.534-66.23-224.359-17.258
		c-20.38,37.203,36.652,82.533,12.944,129.438c-23.016,45.536-95.012,38.911-94.921,56.09
		c0.117,22.025,118.625,62.862,168.27,17.258c33.464-30.74,14.267-81.124,47.461-99.236c35.995-19.64,81.304,27.202,103.551,8.629
		C1438.948,512.81,1431.041,464.027,1408.011,432.91z"/>
	<path style="fill:#912D20;" d="M342.303,730.618c52.409,18.646,102.849,36.592,133.753,12.944
		c17.331-13.262,17.264-30.994,25.888-56.09c25.776-75.012,94.85-115.853,125.124-133.753
		c108.779-64.318,228.627-15.288,232.989-34.517c3.768-16.615-83.068-64.865-185.528-73.348
		c-105.867-8.765-252.107,22.962-289.079,107.865c-9.711,22.302-7.486,38.174-25.888,60.404
		c-41.175,49.742-109.452,39.299-112.18,60.404C244.624,695.865,312.656,720.07,342.303,730.618z"/>
	<path style="fill:#E56E61;" d="M1942.46,1000c0,65.42-6.66,129.28-19.35,190.94c-53.44-29.26-118.28-60.85-228.18-65.54
		c-148.59-6.34-182.77,44.87-394.78,38.84c-217.51-6.2-268.39-62.57-284.77-84.14c-35.35-46.55-59.57-127.97-25.89-181.21
		c46.67-73.76,158.82-21.27,362.43-77.67c80.31-22.24,208.82-57.84,297.71-161.79c79.48-92.97,68.72-172.09,92.13-240.89
		C1867.49,578.7,1942.46,780.6,1942.46,1000z"/>
</g>
<g id="Layer_2">
	<radialGradient id="SVGID_2_" cx="1000" cy="1000" r="1000" gradientUnits="userSpaceOnUse">
		<stop  offset="0" style="stop-color:#D44C32;stop-opacity:0.0335"/>
		<stop  offset="1" style="stop-color:#E14F33;stop-opacity:0.3"/>
	</radialGradient>
	<circle style="fill:url(#SVGID_2_);" cx="1000" cy="1000" r="1000"/>
</g>
</svg>
