<?xml version="1.0" encoding="iso-8859-1"?>
<!-- Generator: Adobe Illustrator 23.0.3, SVG Export Plug-In . SVG Version: 6.00 Build 0)  -->
<svg version="1.1" xmlns="http://www.w3.org/2000/svg" xmlns:xlink="http://www.w3.org/1999/xlink" x="0px" y="0px"
	 viewBox="0 0 612 792" style="enable-background:new 0 0 612 792;" xml:space="preserve">
<g id="back_suite">
	<path style="fill:#B36528;" d="M306.686,248.041c2.877-3.98,6.992-2.036,15.685-5.813c11.052-4.801,17.554-13.655,19.939-16.903
		c7.809-10.634,8.751-20.253,12.091-19.965c3.091,0.266,2.594,8.533,9.221,12.271c4.615,2.603,8.839-6.379,9.617-4.538
		c1.119,2.647,5.757,10.571-3.106,19.298c-8.123,7.998-13.859,21.31-20.706,28.385c-4.623,4.776-27.059,13.872-37.093,9.262
		C305.504,266.899,302.365,254.019,306.686,248.041z"/>
	<path style="fill:#282828;" d="M343.315,208.955c-2.754-2.413-4.191-6.335-3.955-9.708c0.226-3.23,2.089-7.45,4.315-7.551
		c3.65-0.166,6.248,10.842,7.91,10.427c1.496-0.374-1.2-9.149,2.517-18.337c0.999-2.47,2.037-5.263,4.674-7.551
		c5.409-4.692,14.362-4.7,20.494-1.438c9.536,5.072,10.723,17.239,11.146,21.573c1.535,15.727-8.45,28.04-10.787,30.921
		c-1.242,1.531-1.84,2.74-3.236,3.596c-9.999,6.132-31.666-11.115-30.022-15.64c0.312-0.86,1.459-1.237,1.438-2.337
		C347.78,211.335,345.404,210.786,343.315,208.955z"/>
	<path style="fill:#B36528;" d="M303.509,362.04c23.615,18.899,44.918,29.655,60.485,36.061
		c32.923,13.549,40.585,7.806,70.363,23.848c13.672,7.365,21.844,13.849,30.111,10.475c10.726-4.377,15.639-22.91,11.967-36.46
		c-2.843-10.488-10.774-8.908-51.434-31.152c0,0-36.039-19.715-55.137-38.597c-0.037-0.037-0.086-0.085-0.19-0.179
		C358.766,316.223,329.57,338.366,303.509,362.04z"/>
	<path style="fill:#282828;" d="M532.495,377.734c-0.843,14.84-60.194,67.357-60.194,67.357
		c-13.923-8.969-22.675-15.746-25.951-23.191c0,0,10.56,0.857,30.097-33.678C495.984,353.686,533.338,362.894,532.495,377.734z"/>
	
		<rect x="500.421" y="392.086" transform="matrix(0.6664 -0.7456 0.7456 0.6664 -120.6839 520.2254)" style="fill:#282828;" width="41.073" height="5.758"/>
	
		<rect x="469.26" y="432.538" transform="matrix(0.6664 -0.7456 0.7456 0.6664 -162.9084 506.7668)" style="fill:#282828;" width="31.092" height="5.758"/>
</g>
<g id="suit">
	<path style="fill:#D17428;" d="M370.133,340.597l-54.204,29.365c-37.199,17.677-106.95-129.107-69.751-146.784l73.733-11.016
		C295.857,249.721,344.77,271.178,370.133,340.597z"/>
	<path style="fill:#4C4C4D;" d="M286.62,373.56l-34.65,15.23l-48.25-109.74l-1.26-2.86c-1.9-4.31-1.72-8.41-0.18-11.98
		c2.25-5.23,7.41-9.32,13.18-11.23c5.76-1.92,12.12-1.67,16.78,1.76c1.99,1.47,3.67,3.52,4.86,6.22L286.62,373.56z"/>
	<path style="fill:#212121;" d="M232.24,254.74l-28.52,24.31l-1.26-2.86c-1.9-4.31-1.72-8.41-0.18-11.98l13.18-11.23
		C221.22,251.06,227.58,251.31,232.24,254.74z"/>
	<path style="fill:#B7B7B7;" d="M195.899,181.27c-3.312-1.528-5.15,0.374-15.101,1.798c-11.913,1.705-13.3-0.446-17.618,1.438
		c-9.314,4.065-15.363,19.532-11.865,31.281c2.643,8.88,8.587,8.405,23.371,22.652c16.603,16.001,18.953,26.091,27.595,25.772
		c5.69-0.21,12.542-4.875,13.18-11.23c0.135-1.346,0.136-4.902-8.415-13.104c-12.594-12.079-20.133-11.592-26.607-21.573
		c-3.385-5.219-5.934-12.458-3.596-14.742c1.259-1.23,3.262-0.365,8.989,0.36c8.742,1.106,13.112,1.659,15.461-0.36
		C205.984,199.529,203.267,184.669,195.899,181.27z"/>
	
		<rect x="193.321" y="252.461" transform="matrix(0.7611 -0.6487 0.6487 0.7611 -117.5005 198.1432)" style="fill:#4C4C4D;" width="33.798" height="12.225"/>
	<path style="fill:#B36528;" d="M302.569,268.528c5.675,6.849,4.797,8.614,9.667,14.179c5.169,5.906,10.618,9.017,15.146,11.601
		c7.585,4.329,12.358,7.054,19.335,7.734c3.162,0.308,6.223,0.143,6.767,1.611c0.693,1.87-3.741,3.567-6.123,8.378
		c-3.27,6.605,1.076,11.511-1.611,14.501c-1.432,1.594-4.726,2.492-21.591-3.222c-11.031-3.738-17.307-5.864-26.102-10.634
		c-7.062-3.83-15.573-8.532-24.169-17.401c-6.297-6.498-10.24-10.688-10.956-17.401c-0.058-0.547-1.161-12.764,8.056-19.013
		c7.784-5.278,16.816-2.153,19.013-1.289C295.179,259.608,298.108,263.144,302.569,268.528z"/>
	<path style="fill:#D17428;" d="M295.494,354.753c17.264,24.835,34.629,41.206,47.73,51.775
		c27.71,22.354,36.689,19.027,60.674,42.876c11.013,10.95,17.003,19.49,25.888,18.607c11.528-1.146,21.51-17.516,21.843-31.551
		c0.258-10.864-7.795-11.605-40.449-44.494c0,0-28.943-29.151-41.882-52.685c-0.025-0.046-0.058-0.106-0.131-0.226
		C361.501,326.544,327.213,339.469,295.494,354.753z"/>
	<path style="fill:#4C4C4D;" d="M504.857,433.311c-3.918,14.338-72.912,53.33-72.912,53.33
		c-11.747-11.675-18.894-20.127-20.546-28.091c0,0,10.149,3.039,36.456-26.665C474.161,402.18,508.775,418.973,504.857,433.311z"/>
	
		<rect x="469.444" y="444.879" transform="matrix(0.8071 -0.5904 0.5904 0.8071 -169.8412 375.6219)" style="fill:#4C4C4D;" width="41.073" height="5.758"/>
	
		<rect x="430.646" y="476.908" transform="matrix(0.8071 -0.5904 0.5904 0.8071 -197.1947 355.9476)" style="fill:#4C4C4D;" width="31.092" height="5.758"/>
</g>
<g id="Layer_9">
	<path style="fill:#D17428;" d="M287.431,256.728c5.866,2.341,4.323,9.51,13.097,21.26c1.132,1.516,6.408,8.428,14.742,14.022
		c15.578,10.458,32.168,9.819,32.36,14.742c0.108,2.783-5.154,4.054-5.393,8.989c-0.164,3.385,2.207,4.952,1.438,6.472
		c-1.205,2.381-8.566,1.571-16.539-0.719c-7.855-2.256-13.574-5.165-29.483-14.742c-15.344-9.237-18.823-11.828-22.652-15.461
		c-7.375-6.998-12.359-11.728-11.982-17.953C263.653,262.876,279.118,253.411,287.431,256.728z"/>
	<path style="fill:#CFCFCE;" d="M294.1,258.262c2.381,3.542,3.439,7.59,3.289,11.553c-5.629-2.057-12.13-1.48-17.488,2.123
		c-5.353,3.599-8.341,9.402-8.56,15.391c-3.727-1.357-7.077-3.864-9.458-7.406c-5.984-8.9-3.621-20.959,5.274-26.94
		C276.057,246.999,288.116,249.362,294.1,258.262z"/>
	<path style="fill:#4C4C4D;" d="M347,298.933c-4.747,2.482-5.426,8.938-5.933,13.753c-0.398,3.783-1.021,9.708,1.902,15.016
		c6.359,11.548,25.943,13.704,39.357,8.444c7.237-2.838,9.629-4.845,10.517-6.472c2.307-4.23,1.842-10.813-1.618-14.562
		c-8.118-8.794-29.547,1.455-33.169-5.393c-1.594-3.014,1.802-6.425-0.539-9.438C355.452,297.624,350.39,297.16,347,298.933z"/>
</g>
<g id="underhelm">
	<path style="fill:#4C4C4D;" d="M310.956,183.409c0,4.002-2.907,7.339-6.739,7.977c-0.443,0.091-0.899,0.13-1.369,0.13
		c-0.469,0-0.912-0.039-1.356-0.13c-3.832-0.626-6.739-3.963-6.739-7.977s2.907-7.339,6.739-7.964
		c0.443-0.091,0.886-0.13,1.356-0.13c0.469,0,0.925,0.039,1.369,0.13C308.049,176.071,310.956,179.408,310.956,183.409z"/>
	<path style="fill:#7D7D7D;" d="M307.539,174c-16.279,17.703,21.941,47.64,3.461,60.23c-35.87-3.01-64.04-33.08-64.04-69.72
		c0-0.7,0.01-1.38,0.04-2.08v-0.01c0.01-0.44,0.03-0.88,0.06-1.32c1.07-22.64,12.92-42.47,30.52-54.46
		c14.01,1.18,26.85,6.49,37.28,14.71c3.62,2.84,6.96,6.04,9.95,9.54C335.29,143.12,321.022,159.337,307.539,174z"/>
</g>
<g id="Layer_4">
	<path style="fill:#B34848;" d="M322.15,195.48c0.01,0.02,0.01,0.03,0,0.05c0,0.05,0,0.1-0.01,0.15c0,0.12-0.02,0.22-0.04,0.31
		c-0.14,0.62-0.25,1.23-0.31,1.82c-0.02,0.08-0.04,0.17-0.07,0.26v0.01c-0.56,0.93-1.26,1.94-2.14,2.96
		c-0.57,0.68-2.88,3.29-7.01,5.49c-3.63,1.94-8,4.27-11.68,2.51c-2.99-1.42-4.82-5.21-3.96-6.38c0.66-0.88,2.52,0.22,5.58,0.36
		c5.79,0.27,10.44-3.16,12.85-4.94c3.07-2.27,5.12-4.79,6.48-6.47c0.01,0.06,0.02,0.11,0.03,0.17
		C321.99,193.07,322.12,194.42,322.15,195.48z"/>
</g>
<g id="head">
	<path style="fill:#FDC78F;" d="M296.93,202.66c-0.86,1.17,0.97,4.96,3.96,6.38c2.32,1.11,4.92,0.59,7.43-0.43
		c1.47-0.6,2.91-1.36,4.25-2.08c2.01-1.07,3.57-2.23,4.73-3.22c1.23-1.06,1.99-1.92,2.28-2.27c0.88-1.02,1.58-2.03,2.14-2.96v-0.01
		c0.03-0.09,0.05-0.18,0.07-0.26c-0.02,0.07-0.02,0.13-0.03,0.2c-0.79,6.79,2.27,11.91-2.38,19.42c-4.23,6.83-8.52,10.54-13.7,12.56
		c-6.44,2.51-14.24,2.4-24.98,2.4c-8.12,0-15.82-1.8-22.72-5.01c-18.41-8.58-31.17-27.24-31.17-48.88c0-29.77,24.13-53.9,53.89-53.9
		c23.74,0,28.5-0.96,35.69,20.36c1.48,4.38,2.78,30.62,3.8,43.55c0.06,0.76,1.07,1.8,1.51,2.59c0.09,0.15,0.16,0.3,0.19,0.44
		c0.02,0.04,0.03,0.08,0.03,0.12c0.13,1.41,0.29,2.91,0.23,3.82c-0.03-1.06-0.16-2.41-0.28-3.7c-0.01-0.06-0.02-0.11-0.03-0.17
		c-1.36,1.68-3.41,4.2-6.48,6.47c-2.41,1.78-7.06,5.21-12.85,4.94C299.45,202.88,297.59,201.78,296.93,202.66z"/>
	<path d="M288.83,174.67c0,0.9-0.24,1.74-0.66,2.47c-0.86,1.49-2.47,2.5-4.32,2.5c-1.2,0-2.3-0.43-3.16-1.14
		c-1.1-0.91-1.81-2.29-1.81-3.83c0-2.75,2.23-4.97,4.97-4.97C286.6,169.7,288.83,171.92,288.83,174.67z"/>
	<path d="M315.49,167.61c0,0.89-0.33,1.7-0.87,2.32c-0.64,0.73-1.59,1.2-2.64,1.2c-0.65,0-1.26-0.17-1.78-0.48
		c-1.04-0.61-1.74-1.75-1.74-3.04c0-1.94,1.57-3.51,3.52-3.51C313.92,164.1,315.49,165.67,315.49,167.61z"/>
	<path style="fill:none;stroke:#C9AE2E;stroke-width:3;stroke-linecap:round;stroke-miterlimit:10;" d="M272.939,171.288
		c2.587-5.704,6.734-8.549,12.443-8.535"/>
	<path style="fill:none;stroke:#C9AE2E;stroke-width:3;stroke-linecap:round;stroke-miterlimit:10;" d="M306.166,159.909
		c3.929-2.823,7.803-3.131,11.62-0.923"/>
	<path style="fill:#C9AE2E;" d="M302.685,129.674c2.973,0.121,9.428,0.474,13.843,5.034c4.287,4.428,5.427,11.562,3.775,12.584
		c-1.273,0.787-3.217-2.663-8.27-4.674c-8.106-3.226-17.919-0.24-18.157,2.157c-0.119,1.196,2.237,1.335,4.494,4.135
		c3.958,4.908,3.099,12.396,2.157,12.584c-0.724,0.145-0.585-4.204-3.775-6.652c-5.877-4.509-17.539,1.662-20.854,3.416
		c-3.159,1.671-6.459,3.46-9.528,7.191c-1.678,2.039-6.965,8.466-5.573,15.281c0.898,4.398,4.026,6.256,2.876,8.989
		c-0.795,1.889-3.237,3.257-4.674,2.697c-1.473-0.574-1.004-2.827-2.337-3.596c-2.082-1.2-7.546,1.81-9.169,5.573
		c-4.006,9.295,15.276,23.533,13.303,26.067c-1.868,2.401-23.782-4.447-34.337-22.652c-10.661-18.387-8.236-45.778,7.191-61.124
		C243.142,127.245,262.99,128.055,302.685,129.674z"/>
	<circle style="fill:#FFFFFF;" cx="312.436" cy="165.642" r="1.17"/>
	<circle style="fill:#FFFFFF;" cx="284.212" cy="172.092" r="1.908"/>
	<path style="fill:#E5A973;" d="M292.665,168.974c0.378-0.509,3.035,2.096,4.848,4.378c2.292,2.883,5.315,6.686,4.991,10.849
		c-0.097,1.246-0.479,2.338-0.285,4.378c0.201,2.111,0.841,3.363,0.57,3.616c-0.292,0.273-1.396-0.839-2.139-2.284
		c-1.082-2.106-1.121-4.386-1.141-4.949C299.253,177.757,292.026,169.834,292.665,168.974z"/>
	<path style="fill:#E5A973;" d="M281.674,180.955c1.417-0.816,2.689,0.702,4.382,0.404c3.078-0.54,3.849-6.429,5.124-6.202
		c0.666,0.118,0.981,1.819,0.876,3.034c-0.232,2.689-2.628,4.215-3.101,4.517c-3.241,2.064-7.928,1.421-8.36,0.067
		C280.405,182.177,281.013,181.336,281.674,180.955z"/>
	<path style="fill:#E5A973;" d="M307.003,190.392c0.201-0.429,1.762,0.519,3.346-0.123c1.572-0.638,2.005-2.374,2.334-2.234
		c0.293,0.124,0.242,1.622-0.615,2.668c-0.897,1.095-2.594,1.59-3.863,1.002C307.5,191.379,306.863,190.689,307.003,190.392z"/>
	<path style="fill:#E5A973;" d="M314.91,187.022c-0.026-0.004,0.728-1.788,0-3.371c-0.885-1.924-3.129-1.743-5.393-2.966
		c-4.704-2.541-6.469-9.505-5.798-14.292c0.364-2.596,1.478-4.784,1.753-4.719c0.32,0.076-0.911,3.109-0.27,6.876
		c0.516,3.035,2.303,6.871,5.528,9.438c2.137,1.701,3.479,1.71,4.315,3.506C316.225,184.032,314.944,187.027,314.91,187.022z"/>
	<ellipse style="fill:#AA784F;" cx="305.017" cy="191.5" rx="1.82" ry="0.736"/>
	
		<ellipse transform="matrix(0.572 -0.8202 0.8202 0.572 -19.7191 338.1044)" style="fill:#AA784F;" cx="314.144" cy="187.949" rx="1.332" ry="0.885"/>
	<path style="fill:#E5A973;" d="M319.58,201.04c0.88-1.02,1.58-2.03,2.14-2.96c-1.01,3.54-4.47,12.39-19.9,12.13
		c-5.29-0.09-7.38-7.71-7.23-8.51c0.08-0.4,2.72,0.52,7.48-0.22c4.73-0.73,8.15-2.58,11.45-4.36c4.1-2.22,6.13-4.08,6.93-4.85
		c0.46-0.45,0.83-0.83,1.15-1.17c0.11,0.18,0.19,0.35,0.24,0.51c-1.36,1.68-3.41,4.2-6.48,6.47c-2.41,1.78-7.06,5.21-12.85,4.94
		c-3.06-0.14-4.92-1.24-5.58-0.36c-0.86,1.17,0.97,4.96,3.96,6.38c3.68,1.76,8.05-0.57,11.68-2.51
		C316.7,204.33,319.01,201.72,319.58,201.04z"/>
	<path style="fill:#E5A973;" d="M322.13,196.66c-0.07,0.07-0.16,0.49-0.34,1.15c0.06-0.59,0.17-1.2,0.31-1.82
		c0.02-0.09,0.04-0.19,0.04-0.31c0.01-0.05,0.01-0.1,0.01-0.15C322.17,195.97,322.16,196.35,322.13,196.66z"/>
	<path style="fill:#AA784F;" d="M305.68,229.99c-6.44,2.51-14.24,2.4-24.98,2.4c-8.12,0-15.82-1.8-22.72-5.01
		c0.13-0.49,15.598,2.544,16.508,2.474c6.15-0.48-2.569-8.72,1.861-8.93c2.22-0.11-0.138-3.084,2.962-0.104
		C287.8,228.97,295.494,230.483,305.68,229.99z"/>
	<path style="fill:#B34848;" d="M321.72,198.07c0.03-0.09,0.05-0.18,0.07-0.26c-0.02,0.07-0.02,0.13-0.03,0.2
		C321.75,198.03,321.74,198.05,321.72,198.07z"/>
	<path style="fill:#B34848;" d="M322.15,195.48c-0.03-1.06-0.16-2.41-0.28-3.7c-0.01-0.06-0.02-0.11-0.03-0.17
		c0.01-0.03,0.03-0.05,0.05-0.07c0.02,0.04,0.03,0.08,0.03,0.12C322.05,193.07,322.21,194.57,322.15,195.48z"/>
	<path style="fill:#E5A973;" d="M268.079,205.36c0.383-0.182,2.068,3.813,5.843,8.809c2.585,3.422,5.416,6.342,5.12,6.641
		c-0.053,0.053-0.187,0.005-0.39-0.091c-1.873-0.875-2.91-2.382-2.91-2.382c-2.828-4.11-5.111-5.09-6.944-10.056
		C268.693,207.998,267.779,205.502,268.079,205.36z"/>
	<path style="fill:#EF5756;" d="M317.3,203.31c-1.16,0.99-2.72,2.15-4.73,3.22c-1.34,0.72-2.78,1.48-4.25,2.08
		c-0.07-0.36-0.11-0.73-0.11-1.12c0-3.04,2.47-5.5,5.51-5.5C315.09,201.99,316.34,202.48,317.3,203.31z"/>
</g>
<g id="shadow">
	<path style="opacity:0.15;" d="M250.91,194.933c1.378-0.645-3.779-15.598-0.18-17.438c0.567-0.29,1.242-0.198,2.157-0.899
		c1.823-1.396,1.259-3.379,2.517-4.135c1.301-0.781,2.945,0.713,5.863,1.712c0,0,3.197,1.089,7.62,0.804
		c6.098-0.392,9.157-11.274,13.483-17.978c12.558-19.458,43.805-24.281,43.805-24.281c-0.008-3.457-5.657-5.982-7.131-6.64
		c-6.243-2.79-12.348-0.899-22.831,2.517c-17.677,5.76-26.515,8.64-27.685,9.169c-19.916,8.991-29.874,13.487-32.715,22.333
		C230.496,176.653,249.165,195.75,250.91,194.933z"/>
	<path style="opacity:0.15;" d="M265.292,208.865c5.003,4.556,8.61,7.276,14.937,12.813c0.933,0.817,1.432,1.264,2.288,1.938
		c3.506,2.76,5.2,3.177,5.157,3.9c-0.083,1.38-6.448,3.109-12.135,2.382c-8.819-1.127-16.827-7.659-20.405-15.91
		c-2.656-6.127-3.191-13.958-0.989-14.921C255.576,198.442,256.928,201.249,265.292,208.865z"/>
</g>
<g id="overhelm">
	<path style="fill:#D17428;" d="M311,234.23c-4.34,2.97-9.03,5.45-14,7.38c-0.22,0.09-0.45,0.17-0.67,0.25
		c-7.68,2.9-16,4.49-24.7,4.49c-26.49,0-49.53-14.71-61.41-36.41c-5.47-9.96-8.57-21.4-8.57-33.57c0-2.11,0.09-4.21,0.28-6.27
		c2.88-32.45,27.91-58.53,59.86-63.02c3.21-0.46,6.5-0.69,9.84-0.69c2,0,3.99,0.08,5.95,0.25c-18.48,12.59-30.62,33.81-30.62,57.87
		C246.96,201.15,275.13,231.22,311,234.23z"/>
	<path style="fill:#4C4C4D;" d="M209.45,208.48c-2.61,2.24-6,3.6-9.71,3.6c-2.14,0-4.17-0.45-6-1.26c-0.1-0.34-0.17-0.68-0.22-1.04
		l-3.2-24.15l-0.99-7.44c-0.57-4.23,2.41-8.11,6.64-8.68l1.43-0.18c1.62-0.22,3.18,0.08,4.53,0.77c-0.19,2.06-0.28,4.16-0.28,6.27
		c0,2.05,0.09,4.07,0.26,6.07C202.71,191.76,205.34,200.56,209.45,208.48z"/>
	<path style="fill:#212121;" d="M210.22,209.94c-0.58,3.23-3.18,5.85-6.6,6.3l-1.42,0.19c-3.88,0.51-7.47-1.94-8.46-5.61
		c1.83,0.81,3.86,1.26,6,1.26c3.71,0,7.1-1.36,9.71-3.6C209.69,208.97,209.95,209.46,210.22,209.94z"/>
	<path style="fill:#7BC9EF;" d="M327.85,132.69c-2.84,0.01-5.67,0.21-8.47,0.59c-4.01,0.53-7.95,1.43-11.79,2.65
		c-2.13,0.67-4.22,1.45-6.28,2.32c-1.15,0.49-2.29,1.01-3.41,1.55c-0.97,0.48-1.92,0.97-2.87,1.48c-1.02,0.55-2.02,1.13-3.01,1.74
		c-11.68,7.08-21.13,17.37-26.09,29.44c-0.09-0.02-0.19-0.05-0.28-0.08c-0.35-0.09-0.7-0.19-1.04-0.29
		c-0.44-0.13-0.88-0.27-1.31-0.41c-0.29-0.09-0.58-0.19-0.87-0.29c-0.86-0.3-1.71-0.62-2.55-0.97c-0.23-0.1-0.47-0.2-0.7-0.3
		c-0.64-0.27-1.27-0.56-1.89-0.87c-0.31-0.15-0.62-0.31-0.93-0.47c-0.3-0.15-0.61-0.32-0.91-0.48c-0.31-0.17-0.61-0.34-0.91-0.51
		c-0.3-0.16-0.59-0.34-0.89-0.52c-0.21-0.13-0.41-0.25-0.62-0.38c-0.38-0.23-0.75-0.47-1.12-0.73c-0.29-0.19-0.57-0.38-0.86-0.58
		c-0.56-0.38-1.12-0.79-1.66-1.21c-0.27-0.21-0.54-0.42-0.81-0.63c-0.32-0.25-0.64-0.51-0.95-0.78c-0.21-0.18-0.42-0.36-0.63-0.54
		c-0.09-0.07-0.17-0.14-0.25-0.21c-2.66-2.35-5.05-5-7.12-7.9c2.05-18.25,10.11-34.67,22.16-47.23c3.21-0.46,6.5-0.69,9.84-0.69
		c2,0,4.48,1.56,5.95,0.25C289.74,95.74,331.54,123.29,327.85,132.69z"/>
	<path style="fill:#FFFFFF;" d="M319.38,133.28c-4.01,0.53-7.95,1.43-11.79,2.65l-52.15-18.19c2.8-1.32,2.24-3.61,5.27-4.46
		L319.38,133.28z"/>
	<path style="fill:#FFFFFF;" d="M301.31,138.25c-1.15,0.49-2.29,1.01-3.41,1.55l-43.23-14.78c0.87-0.6,1.76-1.18,2.66-1.73
		L301.31,138.25z"/>
	<path style="fill:#FFFFFF;" d="M295.03,141.28c-1.02,0.55-2.02,1.13-3.01,1.74l-42.1-14.33c0.75-0.65,1.51-1.27,2.29-1.86
		L295.03,141.28z"/>
	<path style="fill:#CFCFCE;" d="M246.96,164.51c0-0.7,0.01-1.39,0.04-2.09c0.67-23.19,12.64-43.56,30.58-55.78
		c-1.96-0.17-3.95-0.25-5.95-0.25c-3.34,0-6.63,0.23-9.84,0.69c-12.05,12.56-20.11,28.98-22.16,47.23c-0.34,3.03-0.52,6.1-0.52,9.22
		c0,36.81,24.38,67.93,57.89,78.08c4.97-1.93,9.66-4.41,14-7.38C275.13,231.22,246.96,201.15,246.96,164.51z"/>
	<path style="fill:#B7B7B7;" d="M257.541,162.106c0,5.412-3.931,9.925-9.114,10.788c-0.599,0.123-1.216,0.176-1.851,0.176
		c-0.635,0-1.234-0.053-1.833-0.176c-5.183-0.846-9.114-5.359-9.114-10.788s3.931-9.925,9.114-10.771
		c0.599-0.123,1.199-0.176,1.833-0.176c0.635,0,1.252,0.053,1.851,0.176C253.61,152.182,257.541,156.694,257.541,162.106z"/>
	<path style="fill:#999998;" d="M248.427,151.336v21.559c-0.599,0.123-1.216,0.176-1.851,0.176c-0.635,0-1.234-0.053-1.833-0.176
		v-21.559c0.599-0.123,1.199-0.176,1.833-0.176C247.211,151.159,247.828,151.212,248.427,151.336z"/>
	<circle style="fill:#4C4C4D;" cx="226.81" cy="192.878" r="10.597"/>
	<path style="fill:#D17428;" d="M214.64,197.18c0,4.52-2.01,8.57-5.19,11.3c-4.11-7.92-6.74-16.72-7.54-26.04
		C209.11,183.49,214.64,189.69,214.64,197.18z"/>
</g>
<g id="Helmetsshadow">
	<path style="opacity:0.15;" d="M296.33,241.86c-7.68,2.9-16,4.49-24.7,4.49c-26.49,0-49.53-14.71-61.41-36.41
		c3.81,5.29,19.79,13.48,28.38,17.53C260.23,237.67,284.51,240.87,296.33,241.86z"/>
</g>
</svg>
