<?xml version="1.0" encoding="utf-8"?>
<!-- Generator: Adobe Illustrator 23.0.3, SVG Export Plug-In . SVG Version: 6.00 Build 0)  -->
<svg version="1.1" id="Moon" xmlns="http://www.w3.org/2000/svg" xmlns:xlink="http://www.w3.org/1999/xlink" x="0px" y="0px"
	 viewBox="0 0 2000 2000" style="enable-background:new 0 0 2000 2000;" xml:space="preserve">
<style type="text/css">
	.st0{fill:#C6C6C5;}
	.st1{fill:#9B9A9A;}
	.st2{fill:#E0E0E0;}
	.st3{fill:#E1C122;}
	.st4{fill:#FFFFFF;}
	.st5{fill:#FFE414;}
</style>
<path class="st0" d="M1936.6,235.3c0,36.5-11.4,70.4-30.8,98.3c-21.3,30.5-52.3,53.8-88.5,65.4c-16.6,5.3-34.2,8.2-52.6,8.2
	c-6.2,0-12.3-0.3-18.4-1c-23.8-2.5-46.1-9.9-65.9-21.1c-29.9-16.9-54.3-42.4-69.6-73.2c-11.5-23.1-18-49.1-18-76.6
	c0-12.8,1.4-25.3,4.1-37.3c6.5-29.3,20.5-55.8,39.8-77.4c16.8-18.8,37.7-33.8,61.3-43.8c20.5-8.7,43.1-13.4,66.7-13.4
	c15.5,0,30.5,2,44.7,5.9c21.5,5.8,41.3,15.6,58.6,28.6C1909.6,129.3,1936.6,179.2,1936.6,235.3z"/>
<path class="st1" d="M1905.7,333.6c-21.3,30.5-52.3,53.8-88.5,65.4c-11.4-10.3-18.6-25.2-18.6-41.8c0-31,25.1-56.2,56.2-56.2
	C1877.3,301.1,1896.8,314.4,1905.7,333.6z"/>
<path class="st1" d="M1694.9,251.6c0,35.2-28.5,63.7-63.7,63.7c-7.2,0-14.1-1.2-20.5-3.4c-11.5-23.1-18-49.1-18-76.6
	c0-12.8,1.4-25.3,4.1-37.3c9.9-6.4,21.8-10.1,34.4-10.1C1666.4,188,1694.9,216.5,1694.9,251.6z"/>
<circle class="st1" cx="1864.6" cy="191.5" r="30.5"/>
<path class="st1" d="M1706.8,101.2c0,20.9-16.9,37.8-37.8,37.8c-13.8,0-25.8-7.4-32.4-18.4c16.8-18.8,37.7-33.8,61.3-43.8
	C1703.5,83.5,1706.8,91.9,1706.8,101.2z"/>
<circle class="st1" cx="1770.7" cy="206.7" r="15.2"/>
<path class="st1" d="M1746.3,406.3c-23.8-2.5-46.1-9.9-65.9-21.1c6.8-8.4,17.2-13.7,28.8-13.7C1728.9,371.5,1745,386.9,1746.3,406.3
	z"/>
<path class="st1" d="M1868,98c-5.1,2.1-10.7,3.3-16.6,3.3c-20,0-36.9-13.5-42-31.9C1830.9,75.1,1850.7,84.9,1868,98z"/>
<circle class="st1" cx="1767.8" cy="285.1" r="10.7"/>
<circle class="st1" cx="1638.7" cy="159.4" r="5.2"/>
<circle class="st1" cx="1923.3" cy="265.2" r="2.9"/>
<circle class="st1" cx="1667.1" cy="338.1" r="4.6"/>
<rect x="1914.5" y="49.9" transform="matrix(0.7071 0.7071 -0.7071 0.7071 625.2459 -1329.9996)" class="st2" width="7.1" height="79.6"/>
<circle class="st3" cx="1946.9" cy="60.9" r="5"/>
<rect x="1922.5" y="83.6" transform="matrix(0.7071 0.7071 -0.7071 0.7071 646.5947 -1352.6443)" class="st4" width="67.1" height="41.1"/>
<circle class="st5" cx="1956.1" cy="104.2" r="15.7"/>
<circle cx="1963.3" cy="106.6" r="1.8"/>
<path d="M1957.5,112c-2.5,2.5-6.7,2.5-9.2,0c-2.6-2.6-2.6-6.7,0-9.2L1957.5,112z"/>
<circle cx="1953.6" cy="97" r="1.8"/>
</svg>
