<?xml version="1.0" encoding="iso-8859-1"?>
<!-- Generator: Adobe Illustrator 23.0.3, SVG Export Plug-In . SVG Version: 6.00 Build 0)  -->
<svg version="1.1" xmlns="http://www.w3.org/2000/svg" xmlns:xlink="http://www.w3.org/1999/xlink" x="0px" y="0px"
	 viewBox="0 0 2000 2000" style="enable-background:new 0 0 2000 2000;" xml:space="preserve">
<g id="Layer_2_copy">
</g>
<g id="Layer_1">
</g>
<g id="Layer_2">
	<path style="fill:#91837E;" d="M634.985,578.383c-2.73,5.924-6.73,10.228-10.861,13.415c-4.876,3.759-9.934,5.96-13.304,7.427
		c-2.723,1.185-5.361,2.077-8.02,2.738c-9.085,2.26-18.409,1.827-32.153,1.189c-6.71-0.312-12.504-0.933-17.865-1.722
		c-5.503-0.811-10.55-1.798-15.663-2.809c-4.818-0.952-9.439-1.867-13.782-2.789c-18.835-3.998-32.418-8.144-33.943-16.24
		c-0.783-4.16,1.811-8.327,3.021-10.27c3.972-6.382,9.624-7.315,16.311-11.78c2.003-1.337,3.656-2.697,5.072-4.059
		c3.085-2.969,5.044-5.955,7.039-8.776c0.768-1.086,1.542-2.148,2.387-3.174c16.021-19.456,52.273-18.853,74.421-16.201
		c1.323,0.159,2.596,0.324,3.811,0.494c13.491,1.879,20.668,5.54,24.985,9.087c1.245,1.023,2.254,2.037,3.106,2.995
		C638.961,548.489,641.006,565.32,634.985,578.383z"/>
	<path style="fill:#6B615E;" d="M626.442,534.912c-1.409,6.985-7.581,12.245-14.982,12.245c-8.44,0-15.283-6.842-15.283-15.283
		c0-2.342,0.526-4.56,1.468-6.543c1.323,0.159,2.596,0.324,3.811,0.494C614.948,527.704,622.125,531.365,626.442,534.912z"/>
	<circle style="fill:#6B615E;" cx="564.566" cy="550.938" r="5.711"/>
	<circle style="fill:#6B615E;" cx="597.787" cy="571.61" r="9.331"/>
	<path style="fill:#6B615E;" d="M554.994,593.328c0,2.958-0.807,5.728-2.212,8.102c-5.503-0.811-10.55-1.798-15.663-2.809
		c-4.818-0.952-9.439-1.867-13.782-2.789c-0.129-0.816-0.196-1.652-0.196-2.503c0-8.796,7.131-15.926,15.927-15.926
		C547.864,577.402,554.994,584.532,554.994,593.328z"/>
	<path style="fill:#6B615E;" d="M523.141,549.249c0,3.11-2.521,5.631-5.63,5.631c-1.422,0-2.722-0.527-3.712-1.397
		c3.085-2.969,5.044-5.955,7.039-8.776C522.234,545.73,523.141,547.383,523.141,549.249z"/>
	<circle style="fill:#6B615E;" cx="505.123" cy="574.506" r="4.826"/>
	<path style="fill:#6B615E;" d="M624.125,591.798c-4.876,3.759-9.934,5.96-13.304,7.427c-2.723,1.185-5.361,2.077-8.02,2.738
		c-0.011-0.221-0.017-0.443-0.017-0.667c0-7.06,5.723-12.785,12.785-12.785C618.859,588.511,621.859,589.755,624.125,591.798z"/>
	<circle style="fill:#6B615E;" cx="583.952" cy="539.113" r="2.574"/>
	<circle style="fill:#6B615E;" cx="571.318" cy="583.922" r="4.59"/>
</g>
</svg>
