<?xml version="1.0" encoding="utf-8"?>
<!-- Generator: Adobe Illustrator 23.0.3, SVG Export Plug-In . SVG Version: 6.00 Build 0)  -->
<svg version="1.1" id="Layer_1" xmlns="http://www.w3.org/2000/svg" xmlns:xlink="http://www.w3.org/1999/xlink" x="0px" y="0px"
	 viewBox="0 0 2000 2000" style="enable-background:new 0 0 2000 2000;" xml:space="preserve">
<style type="text/css">
	.st0{fill:#F47637;}
	.st1{fill:#C9C9C9;}
	.st2{fill:#939393;}
	.st3{fill:#BF4D27;}
	.st4{fill:#82D3ED;}
	.st5{fill:#ABAAAA;}
	.st6{fill:#333333;}
	.st7{fill:#FFFFFF;}
	.st8{fill:#1B1C1B;}
</style>
<rect x="743.6" y="571.5" class="st0" width="547.1" height="1029.7"/>
<path class="st1" d="M1290.7,532.4v85.9H743.6v-85.9C1017.1-179.4,1019.7-175.6,1290.7,532.4z"/>
<rect x="732.8" y="568.1" class="st2" width="568.7" height="100.5"/>
<polygon class="st2" points="830.1,1701.7 1211.2,1701.7 1321.8,1601.1 717.5,1601.1 "/>
<path class="st2" d="M1201.6,1071.9c0,101.9-82.6,184.5-184.5,184.5c-94.7,0-172.8-71.4-183.3-163.3c-0.8-7-1.2-14-1.2-21.2
	c0-101.9,82.6-184.5,184.5-184.5c99.7,0,180.9,79.1,184.4,177.9C1201.6,1067.5,1201.6,1069.7,1201.6,1071.9z"/>
<path class="st3" d="M1202.7,1086.3c0,101.9-82.6,184.5-184.5,184.5c-99.6,0-180.8-79-184.3-177.7c10.5,91.9,88.6,163.3,183.3,163.3
	c101.9,0,184.5-82.6,184.5-184.5c0-2.2,0-4.4-0.1-6.6C1202.3,1072.2,1202.7,1079.2,1202.7,1086.3z"/>
<path class="st4" d="M1167.2,1071.9c0,3-0.1,6-0.3,9c-0.2,4.3-0.7,8.5-1.3,12.6c-0.7,4.9-1.6,9.7-2.8,14.4c-1,4-2.1,8-3.5,11.9
	c-5.2,15.6-13,30.1-22.8,43c-11.8,15.5-26.5,28.6-43.3,38.5c-22.3,13.2-48.4,20.8-76.2,20.8c-61.3,0-113.9-36.7-137.3-89.3
	c-3.8-8.5-6.8-17.4-8.9-26.6c-1.7-7.4-2.9-15.1-3.5-22.8c-0.2-2.3-0.3-4.7-0.4-7c-0.1-1.5-0.1-2.9-0.1-4.4c0-15.3,2.3-30,6.5-43.9
	c1.2-4,2.6-7.9,4.1-11.7c1.8-4.6,3.8-9,6.1-13.3c1.9-3.8,4.1-7.4,6.3-11c0.5-0.9,1.1-1.7,1.6-2.6c3.1-4.7,6.4-9.2,10-13.5
	c2.7-3.3,5.6-6.5,8.7-9.6c4.6-4.7,9.6-9.1,14.7-13.1c25.4-19.8,57.3-31.5,92-31.5c68,0,125.5,45.2,143.9,107.3c3.1,10.3,5,21,5.8,32
	C1167.1,1064.6,1167.2,1068.2,1167.2,1071.9z"/>
<g>
	<path class="st1" d="M828.8,626.4c-3.9,11.9-15.4,19.3-27.4,18.2c-1.9-0.2-3.9-0.6-5.8-1.2s-3.7-1.4-5.4-2.4
		c-10.3-6.2-15.5-18.9-11.6-30.8S794,590.9,806,592c1.9,0.2,3.9,0.6,5.8,1.2c1.9,0.6,3.7,1.4,5.4,2.4
		C827.6,601.8,832.7,614.5,828.8,626.4z"/>
	<path class="st5" d="M817.2,595.6l-15.8,49c-1.9-0.2-3.9-0.6-5.8-1.2s-3.7-1.4-5.4-2.4l15.8-49c1.9,0.2,3.9,0.6,5.8,1.2
		C813.7,593.8,815.5,594.6,817.2,595.6z"/>
</g>
<g>
	<path class="st1" d="M1027.8,593.2c11.9,3.9,19.2,15.5,18.1,27.5c-0.2,1.9-0.6,3.9-1.2,5.8c-0.6,1.9-1.4,3.7-2.4,5.4
		c-6.2,10.3-18.9,15.4-30.8,11.6c-11.9-3.9-19.2-15.5-18.1-27.5c0.2-1.9,0.6-3.9,1.2-5.8s1.4-3.7,2.4-5.4
		C1003.2,594.4,1015.9,589.3,1027.8,593.2z"/>
	<path class="st5" d="M997,604.8l49,15.9c-0.2,1.9-0.6,3.9-1.2,5.8c-0.6,1.9-1.4,3.7-2.4,5.4l-49-15.9c0.2-1.9,0.6-3.9,1.2-5.8
		S996,606.4,997,604.8z"/>
</g>
<g>
	<path class="st1" d="M1208.7,633.2c-7.1-10.4-5.7-24,2.5-32.8c1.3-1.4,2.8-2.7,4.5-3.9c1.7-1.1,3.4-2.1,5.2-2.8
		c11.2-4.4,24.4-0.6,31.4,9.7c7.1,10.4,5.7,24-2.5,32.8c-1.3,1.4-2.8,2.7-4.5,3.9c-1.7,1.1-3.4,2.1-5.2,2.8
		C1229,647.3,1215.8,643.6,1208.7,633.2z"/>
	<path class="st5" d="M1240.2,642.9l-29-42.6c1.3-1.4,2.8-2.7,4.5-3.9c1.7-1.1,3.4-2.1,5.2-2.8l29,42.6c-1.3,1.4-2.8,2.7-4.5,3.9
		C1243.7,641.3,1242,642.2,1240.2,642.9z"/>
</g>
<polygon class="st6" points="789.4,2000 1249.9,2000 1172.9,1701.7 867.1,1701.7 "/>
<rect x="1004.4" y="1315.3" class="st6" width="25.4" height="262.9"/>
<path class="st6" d="M494.2,1578.2h248.7v-262.9l-25.4,0C602.7,1338.7,523,1417.9,494.2,1578.2z"/>
<path class="st6" d="M1539.4,1578.2h-248.7v-262.9l25.4,0C1430.9,1338.7,1510.6,1417.9,1539.4,1578.2z"/>
<path class="st7" d="M1166.9,1061l-265.2-85.1c2.7-3.3,5.6-6.5,8.7-9.6c4.6-4.7,9.6-9.1,14.7-13.1L1161,1029
	C1164.1,1039.3,1166.1,1050,1166.9,1061z"/>
<path class="st7" d="M1167,1080.9c-0.2,4.3-0.7,8.5-1.3,12.6l-282-90.5c1.9-3.8,4.1-7.4,6.3-11L1167,1080.9z"/>
<path class="st7" d="M1162.9,1107.9c-1,4-2.1,8-3.5,11.9L873.5,1028c1.2-4,2.6-7.9,4.1-11.7L1162.9,1107.9z"/>
<path class="st7" d="M1136.6,1162.8c-11.8,15.5-26.5,28.6-43.3,38.5l-213.5-68.5c-3.8-8.5-6.8-17.4-8.9-26.6
	c-1.7-7.4-2.9-15.1-3.5-22.8c-0.2-2.3-0.3-4.7-0.4-7L1136.6,1162.8z"/>
<rect x="743.6" y="668.6" class="st3" width="547.1" height="21.6"/>
<rect x="1004.4" y="1578.2" class="st3" width="25.4" height="22.9"/>
<polygon class="st8" points="1172.9,1701.7 867.1,1701.7 857.3,1739.5 1182.7,1739.5 "/>
</svg>
